<svg width="38" height="38" viewBox="0 0 38 38" fill="none" xmlns="http://www.w3.org/2000/svg">
<ellipse cx="19" cy="19" rx="19" ry="19" transform="rotate(90 19 19)" fill="white"/>
<path d="M18.3491 20.2835C18.4344 20.3694 18.5357 20.4376 18.6474 20.4842C18.7591 20.5307 18.879 20.5547 19 20.5547C19.121 20.5547 19.2408 20.5307 19.3525 20.4842C19.4642 20.4376 19.5656 20.3694 19.6508 20.2835L23.8491 16.076C23.9344 15.9901 24.0357 15.9219 24.1475 15.8754C24.2592 15.8288 24.379 15.8049 24.5 15.8049C24.621 15.8049 24.7408 15.8288 24.8525 15.8754C24.9642 15.9219 25.0656 15.9901 25.1508 16.076C25.3215 16.2478 25.4174 16.4801 25.4174 16.7223C25.4174 16.9644 25.3215 17.1968 25.1508 17.3685L20.9433 21.576C20.4277 22.091 19.7287 22.3802 19 22.3802C18.2712 22.3802 17.5723 22.091 17.0566 21.576L12.8491 17.3685C12.6798 17.1978 12.5843 16.9673 12.5833 16.7268C12.5826 16.6062 12.6057 16.4866 12.6513 16.3749C12.697 16.2632 12.7642 16.1617 12.8491 16.076C12.9343 15.9901 13.0357 15.9219 13.1474 15.8754C13.2591 15.8288 13.379 15.8049 13.5 15.8049C13.621 15.8049 13.7408 15.8288 13.8525 15.8754C13.9642 15.9219 14.0656 15.9901 14.1508 16.076L18.3491 20.2835Z" fill="#4F2EE8"/>
</svg>
