<svg width="44" height="44" viewBox="0 0 44 44" fill="none" xmlns="http://www.w3.org/2000/svg">
<ellipse cx="22" cy="22" rx="22" ry="22" fill="#111111"/>
<path d="M16.5999 22.7098C16.5062 22.6169 16.4318 22.5063 16.381 22.3844C16.3302 22.2625 16.3041 22.1318 16.3041 21.9998C16.3041 21.8678 16.3302 21.7371 16.381 21.6153C16.4318 21.4934 16.5062 21.3828 16.5999 21.2898L21.1899 16.7098C21.2836 16.6169 21.358 16.5063 21.4088 16.3844C21.4596 16.2625 21.4857 16.1318 21.4857 15.9998C21.4857 15.8678 21.4596 15.7371 21.4088 15.6152C21.358 15.4934 21.2836 15.3828 21.1899 15.2898C21.0025 15.1036 20.7491 14.999 20.4849 14.999C20.2207 14.999 19.9673 15.1036 19.7799 15.2898L15.1899 19.8798C14.6281 20.4423 14.3125 21.2048 14.3125 21.9998C14.3125 22.7948 14.6281 23.5573 15.1899 24.1198L19.7799 28.7098C19.9662 28.8946 20.2176 28.9987 20.4799 28.9998C20.6115 29.0006 20.742 28.9754 20.8638 28.9256C20.9856 28.8758 21.0965 28.8025 21.1899 28.7098C21.2836 28.6169 21.358 28.5063 21.4088 28.3844C21.4596 28.2626 21.4857 28.1319 21.4857 27.9998C21.4857 27.8678 21.4596 27.7371 21.4088 27.6153C21.358 27.4934 21.2836 27.3828 21.1899 27.2898L16.5999 22.7098Z" fill="#B4AFAF"/>
<path d="M23.5999 22.7098C23.5062 22.6169 23.4318 22.5063 23.381 22.3844C23.3302 22.2625 23.3041 22.1318 23.3041 21.9998C23.3041 21.8678 23.3302 21.7371 23.381 21.6153C23.4318 21.4934 23.5062 21.3828 23.5999 21.2898L28.1899 16.7098C28.2836 16.6169 28.358 16.5063 28.4088 16.3844C28.4596 16.2625 28.4857 16.1318 28.4857 15.9998C28.4857 15.8678 28.4596 15.7371 28.4088 15.6152C28.358 15.4934 28.2836 15.3828 28.1899 15.2898C28.0025 15.1036 27.7491 14.999 27.4849 14.999C27.2207 14.999 26.9673 15.1036 26.7799 15.2898L22.1899 19.8798C21.6281 20.4423 21.3125 21.2048 21.3125 21.9998C21.3125 22.7948 21.6281 23.5573 22.1899 24.1198L26.7799 28.7098C26.9662 28.8946 27.2176 28.9987 27.4799 28.9998C27.6115 29.0006 27.742 28.9754 27.8638 28.9256C27.9856 28.8758 28.0965 28.8025 28.1899 28.7098C28.2836 28.6169 28.358 28.5063 28.4088 28.3844C28.4596 28.2626 28.4857 28.1319 28.4857 27.9998C28.4857 27.8678 28.4596 27.7371 28.4088 27.6153C28.358 27.4934 28.2836 27.3828 28.1899 27.2898L23.5999 22.7098Z" fill="#B4AFAF"/>
</svg>
