<svg width="44" height="44" viewBox="0 0 44 44" fill="none" xmlns="http://www.w3.org/2000/svg">
<circle cx="22" cy="22" r="21.5" stroke="#111111"/>
<path d="M17.18 31.12C16.78 31.12 16.4467 30.9933 16.18 30.74C15.9267 30.4733 15.8 30.16 15.8 29.8C15.8 29.4267 15.9267 29.1133 16.18 28.86C16.4467 28.5933 16.78 28.46 17.18 28.46C17.58 28.46 17.9067 28.5933 18.16 28.86C18.4133 29.1133 18.54 29.4267 18.54 29.8C18.54 30.16 18.4133 30.4733 18.16 30.74C17.9067 30.9933 17.58 31.12 17.18 31.12ZM21.5159 31.12C21.1159 31.12 20.7826 30.9933 20.5159 30.74C20.2626 30.4733 20.1359 30.16 20.1359 29.8C20.1359 29.4267 20.2626 29.1133 20.5159 28.86C20.7826 28.5933 21.1159 28.46 21.5159 28.46C21.9159 28.46 22.2426 28.5933 22.4959 28.86C22.7493 29.1133 22.8759 29.4267 22.8759 29.8C22.8759 30.16 22.7493 30.4733 22.4959 30.74C22.2426 30.9933 21.9159 31.12 21.5159 31.12ZM25.8519 31.12C25.4519 31.12 25.1185 30.9933 24.8519 30.74C24.5985 30.4733 24.4719 30.16 24.4719 29.8C24.4719 29.4267 24.5985 29.1133 24.8519 28.86C25.1185 28.5933 25.4519 28.46 25.8519 28.46C26.2519 28.46 26.5785 28.5933 26.8319 28.86C27.0852 29.1133 27.2119 29.4267 27.2119 29.8C27.2119 30.16 27.0852 30.4733 26.8319 30.74C26.5785 30.9933 26.2519 31.12 25.8519 31.12Z" fill="#111111"/>
</svg>
