<svg width="44" height="44" viewBox="0 0 44 44" fill="none" xmlns="http://www.w3.org/2000/svg">
<path d="M43.5 22C43.5 33.8742 33.8741 43.5001 22 43.5001C10.1259 43.5001 0.5 33.8742 0.5 22C0.5 10.1259 10.1259 0.5 22 0.5C33.8741 0.5 43.5 10.1259 43.5 22Z" fill="#EAC645" stroke="black"/>
<path d="M23.4001 22.7098C23.4938 22.6169 23.5682 22.5063 23.619 22.3844C23.6697 22.2625 23.6959 22.1318 23.6959 21.9998C23.6959 21.8678 23.6697 21.7371 23.619 21.6152C23.5682 21.4934 23.4938 21.3828 23.4001 21.2898L18.8101 16.7098C18.7164 16.6169 18.642 16.5063 18.5912 16.3844C18.5404 16.2625 18.5143 16.1318 18.5143 15.9998C18.5143 15.8678 18.5404 15.7371 18.5912 15.6152C18.642 15.4934 18.7164 15.3828 18.8101 15.2898C18.9974 15.1036 19.2509 14.999 19.5151 14.999C19.7793 14.999 20.0327 15.1036 20.2201 15.2898L24.8101 19.8798C25.3719 20.4423 25.6874 21.2048 25.6874 21.9998C25.6874 22.7948 25.3719 23.5573 24.8101 24.1198L20.2201 28.7098C20.0338 28.8946 19.7824 28.9987 19.5201 28.9998C19.3885 29.0006 19.258 28.9754 19.1362 28.9256C19.0143 28.8758 18.9035 28.8025 18.8101 28.7098C18.7164 28.6169 18.642 28.5063 18.5912 28.3844C18.5404 28.2625 18.5143 28.1318 18.5143 27.9998C18.5143 27.8678 18.5404 27.7371 18.5912 27.6153C18.642 27.4934 18.7164 27.3828 18.8101 27.2898L23.4001 22.7098Z" fill="black"/>
</svg>
