<svg width="44" height="44" viewBox="0 0 44 44" fill="none" xmlns="http://www.w3.org/2000/svg">
<path d="M43.5 22C43.5 33.8742 33.8741 43.5001 22 43.5001C10.1259 43.5001 0.5 33.8742 0.5 22C0.5 10.1259 10.1259 0.5 22 0.5C33.8741 0.5 43.5 10.1259 43.5 22Z" fill="#EAC645" stroke="black"/>
<path d="M27.4001 22.7098C27.4938 22.6169 27.5682 22.5063 27.619 22.3844C27.6697 22.2625 27.6959 22.1318 27.6959 21.9998C27.6959 21.8678 27.6697 21.7371 27.619 21.6153C27.5682 21.4934 27.4938 21.3828 27.4001 21.2898L22.8101 16.7098C22.7164 16.6169 22.642 16.5063 22.5912 16.3844C22.5404 16.2625 22.5143 16.1318 22.5143 15.9998C22.5143 15.8678 22.5404 15.7371 22.5912 15.6152C22.642 15.4934 22.7164 15.3828 22.8101 15.2898C22.9974 15.1036 23.2509 14.999 23.5151 14.999C23.7793 14.999 24.0327 15.1036 24.2201 15.2898L28.8101 19.8798C29.3719 20.4423 29.6874 21.2048 29.6874 21.9998C29.6874 22.7948 29.3719 23.5573 28.8101 24.1198L24.2201 28.7098C24.0338 28.8946 23.7824 28.9987 23.5201 28.9998C23.3885 29.0006 23.258 28.9754 23.1362 28.9256C23.0143 28.8758 22.9035 28.8025 22.8101 28.7098C22.7164 28.6169 22.642 28.5063 22.5912 28.3844C22.5404 28.2626 22.5143 28.1319 22.5143 27.9998C22.5143 27.8678 22.5404 27.7371 22.5912 27.6153C22.642 27.4934 22.7164 27.3828 22.8101 27.2898L27.4001 22.7098Z" fill="black"/>
<path d="M20.4001 22.7098C20.4938 22.6169 20.5682 22.5063 20.619 22.3844C20.6697 22.2625 20.6959 22.1318 20.6959 21.9998C20.6959 21.8678 20.6697 21.7371 20.619 21.6153C20.5682 21.4934 20.4938 21.3828 20.4001 21.2898L15.8101 16.7098C15.7164 16.6169 15.642 16.5063 15.5912 16.3844C15.5404 16.2625 15.5143 16.1318 15.5143 15.9998C15.5143 15.8678 15.5404 15.7371 15.5912 15.6152C15.642 15.4934 15.7164 15.3828 15.8101 15.2898C15.9974 15.1036 16.2509 14.999 16.5151 14.999C16.7793 14.999 17.0327 15.1036 17.2201 15.2898L21.8101 19.8798C22.3719 20.4423 22.6874 21.2048 22.6874 21.9998C22.6874 22.7948 22.3719 23.5573 21.8101 24.1198L17.2201 28.7098C17.0338 28.8946 16.7824 28.9987 16.5201 28.9998C16.3885 29.0006 16.258 28.9754 16.1362 28.9256C16.0143 28.8758 15.9035 28.8025 15.8101 28.7098C15.7164 28.6169 15.642 28.5063 15.5912 28.3844C15.5404 28.2626 15.5143 28.1319 15.5143 27.9998C15.5143 27.8678 15.5404 27.7371 15.5912 27.6153C15.642 27.4934 15.7164 27.3828 15.8101 27.2898L20.4001 22.7098Z" fill="black"/>
</svg>
